<?xml version="1.0" encoding="UTF-8"?>
<svg xmlns="http://www.w3.org/2000/svg" xmlns:xlink="http://www.w3.org/1999/xlink" width="3001" height="3001" viewBox="0 0 3001 3001">
<path fill-rule="evenodd" fill="rgb(100%, 100%, 100%)" fill-opacity="1" d="M 1 0 L 3001 0 L 3001 3000 L 1 3000 L 1 0 "/>
<path fill-rule="nonzero" fill="rgb(0%, 0%, 0%)" fill-opacity="1" d="M 1875.859375 850.761719 C 2055.140625 954.269531 2175.511719 1120.648438 2225.160156 1305.96875 C 2332.210938 1705.53125 2094.539062 2117.128906 1695.019531 2224.167969 C 1509.75 2273.804688 1305.5 2252.746094 1126.210938 2149.230469 L 1126.140625 2149.191406 L 1126.109375 2149.230469 C 946.835938 2045.722656 826.464844 1879.339844 776.8125 1694.019531 C 753.097656 1605.5 745.535156 1512.648438 755.378906 1420.25 L 755.453125 1419.550781 L 756.214844 1412.800781 L 756.351562 1411.660156 C 757.800781 1399.390625 759.550781 1387.140625 761.625 1374.898438 L 761.722656 1374.328125 L 763.003906 1367 L 763.019531 1366.949219 C 776.796875 1290.558594 802.328125 1217.460938 838.648438 1148.890625 L 841.566406 1143.441406 L 842.796875 1141.179688 L 846.011719 1135.359375 L 847.320312 1133 L 851.753906 1125.210938 L 851.789062 1125.148438 L 851.753906 1125.121094 C 955.261719 945.851562 1121.640625 825.46875 1306.960938 775.820312 C 1406.929688 749.039062 1512.449219 742.851562 1616.570312 759.089844 L 1617.730469 759.269531 L 1624.101562 760.308594 L 1626.128906 760.640625 L 1632.210938 761.699219 L 1634 762.019531 L 1640.140625 763.140625 L 1642.148438 763.53125 C 1645.800781 764.238281 1649.460938 764.960938 1653.109375 765.71875 L 1656.101562 766.339844 L 1659.269531 767.03125 L 1665.089844 768.308594 L 1667.191406 768.78125 L 1673.800781 770.320312 L 1675.859375 770.808594 L 1682.890625 772.539062 L 1684.300781 772.890625 C 1690.101562 774.359375 1695.890625 775.890625 1701.679688 777.5 L 1702.308594 777.679688 C 1761.660156 794.28125 1819.921875 818.519531 1875.769531 850.761719 L 1875.828125 850.800781 Z M 820.664062 1682.300781 C 852.246094 1800.179688 914.28125 1909.878906 1003.308594 1998.640625 C 1154.390625 2039.332031 1312.648438 2027.601562 1453.378906 1970.039062 C 1592.71875 1913.050781 1714.980469 1811.019531 1796.179688 1670.390625 L 1796.210938 1670.410156 C 1877.328125 1529.878906 1904.519531 1372.960938 1884.191406 1223.671875 C 1863.679688 1073 1794.710938 930.101562 1683.941406 819.640625 C 1562.578125 786.949219 1436.558594 788.089844 1318.679688 819.679688 C 1053.699219 890.671875 853.941406 1109.320312 806.941406 1378.808594 L 806.925781 1378.910156 C 789.183594 1480.761719 794.417969 1584.339844 820.664062 1682.300781 "/>
</svg>
